<svg id="Capa_1" enable-background="new 0 0 512 512" height="512" viewBox="0 0 512 512" width="512" xmlns="http://www.w3.org/2000/svg"><g><g><g><g><path d="m496 200h-155v-25c0-46.944 38.056-85 85-85 46.944 0 85 38.056 85 85v10c0 8.284-6.716 15-15 15z" fill="#ffe67a"/><path d="m511 175c0-46.944-38.056-85-85-85v110h70c8.284 0 15-6.716 15-15z" fill="#ffc336"/></g><path d="m426 110c-30.327 0-55-24.673-55-55s24.673-55 55-55 55 24.673 55 55-24.673 55-55 55z" fill="#ffd6aa"/><path d="m426 0v110c30.327 0 55-24.673 55-55s-24.673-55-55-55z" fill="#fac68f"/><g><path d="m341 200h-170v-25c0-46.944 38.056-85 85-85 46.944 0 85 38.056 85 85z" fill="#f2faff"/><path d="m341 175c0-46.944-38.056-85-85-85v110h85z" fill="#c8eafa"/></g><path d="m256 110c-30.327 0-55-24.673-55-55s24.673-55 55-55 55 24.673 55 55-24.673 55-55 55z" fill="#ffd6aa"/><path d="m256 0v110c30.327 0 55-24.673 55-55s-24.673-55-55-55z" fill="#fac68f"/><g><path d="m171 200h-155c-8.284 0-15-6.716-15-15v-10c0-46.944 38.056-85 85-85 46.944 0 85 38.056 85 85z" fill="#bee75e"/><path d="m171 175c0-46.944-38.056-85-85-85v110h85z" fill="#00da80"/></g><path d="m86 110c-30.327 0-55-24.673-55-55s24.673-55 55-55 55 24.673 55 55-24.673 55-55 55z" fill="#ffd6aa"/><path d="m86 0v110c30.327 0 55-24.673 55-55s-24.673-55-55-55z" fill="#fac68f"/></g></g><g><path d="m496 300h-480c-8.284 0-15-6.716-15-15v-100h510v100c0 8.284-6.716 15-15 15z" fill="#bc8173"/></g><g><path d="m511 285v-100h-255v115h240c8.284 0 15-6.716 15-15z" fill="#9d5e4a"/></g><g><g><g><path d="m496 440h-155v-25c0-46.944 38.056-85 85-85 46.944 0 85 38.056 85 85v10c0 8.284-6.716 15-15 15z" fill="#f2faff"/><path d="m511 415c0-46.944-38.056-85-85-85v110h70c8.284 0 15-6.716 15-15z" fill="#c8eafa"/></g><path d="m426 350c-30.327 0-55-24.673-55-55s24.673-55 55-55 55 24.673 55 55-24.673 55-55 55z" fill="#ffd6aa"/><path d="m426 240v110c30.327 0 55-24.673 55-55s-24.673-55-55-55z" fill="#fac68f"/><g><path d="m341 440h-170v-25c0-46.944 38.056-85 85-85 46.944 0 85 38.056 85 85z" fill="#bee75e"/><path d="m341 415c0-46.944-38.056-85-85-85v110h85z" fill="#00da80"/></g><path d="m256 350c-30.327 0-55-24.673-55-55s24.673-55 55-55 55 24.673 55 55-24.673 55-55 55z" fill="#ffd6aa"/><path d="m256 240v110c30.327 0 55-24.673 55-55s-24.673-55-55-55z" fill="#fac68f"/><g><path d="m171 440h-155c-8.284 0-15-6.716-15-15v-10c0-46.944 38.056-85 85-85 46.944 0 85 38.056 85 85z" fill="#ffe67a"/><path d="m171 415c0-46.944-38.056-85-85-85v110h85z" fill="#ffc336"/></g><path d="m86 350c-30.327 0-55-24.673-55-55s24.673-55 55-55 55 24.673 55 55-24.673 55-55 55z" fill="#ffd6aa"/><path d="m86 240v110c30.327 0 55-24.673 55-55s-24.673-55-55-55z" fill="#fac68f"/></g></g><path d="m1 425v72c0 8.284 6.716 15 15 15h480c8.284 0 15-6.716 15-15v-72z" fill="#bc8173"/><path d="m496 512c8.284 0 15-6.716 15-15v-72h-255v87z" fill="#9d5e4a"/></g></svg>